<svg width="451" height="365" viewBox="0 0 451 365" fill="none" xmlns="http://www.w3.org/2000/svg">
<path d="M0 261.61C5.30299 271.903 11.0388 281.577 17.1654 290.56H433.835C439.961 281.577 445.697 271.903 451 261.61H0Z" fill="#3F3D56"/>
<path d="M185.16 164.8V267.36H257.01V164.8C257.011 164.062 256.776 163.344 256.338 162.75C255.901 162.156 255.285 161.718 254.58 161.5C254.248 161.39 253.9 161.336 253.55 161.34H188.63C188.175 161.339 187.724 161.428 187.303 161.601C186.883 161.775 186.5 162.029 186.178 162.351C185.856 162.672 185.6 163.054 185.425 163.474C185.25 163.894 185.16 164.345 185.16 164.8ZM213.2 200.04C213.219 198.018 214.035 196.085 215.471 194.662C216.908 193.239 218.848 192.441 220.87 192.441C222.892 192.441 224.832 193.239 226.268 194.662C227.705 196.085 228.521 198.018 228.54 200.04V211.94C228.53 213.967 227.717 215.908 226.28 217.338C224.842 218.768 222.897 219.571 220.87 219.571C218.842 219.571 216.897 218.768 215.46 217.338C214.023 215.908 213.21 213.967 213.2 211.94V200.04Z" fill="#2F2E41"/>
<path d="M184.94 264.08V273.97C184.942 274.482 185.145 274.973 185.506 275.336C185.868 275.7 186.358 275.906 186.87 275.91H255.3C255.813 275.907 256.304 275.702 256.665 275.338C257.027 274.975 257.23 274.483 257.23 273.97V264.08H184.94Z" fill="#3F3D56"/>
<path d="M111.13 10.28V197.54C111.132 199.926 112.081 202.214 113.768 203.902C115.455 205.589 117.744 206.538 120.13 206.54H397.63C400.016 206.538 402.304 205.589 403.992 203.902C405.679 202.214 406.628 199.926 406.63 197.54V10.28C406.624 7.89572 405.674 5.61088 403.987 3.92587C402.3 2.24086 400.014 1.29304 397.63 1.29001H120.13C117.746 1.29305 115.46 2.24087 113.773 3.92587C112.086 5.61088 111.136 7.89572 111.13 10.28V10.28Z" fill="#3F3D56"/>
<path d="M117.64 12.61V195.23C117.642 196.505 118.15 197.727 119.051 198.629C119.953 199.53 121.175 200.038 122.45 200.04H395.32C396.595 200.038 397.817 199.53 398.719 198.629C399.62 197.727 400.128 196.505 400.13 195.23V12.61C400.13 11.3334 399.623 10.109 398.722 9.20541C397.82 8.3018 396.596 7.79278 395.32 7.79001H122.45C121.173 7.79279 119.95 8.30183 119.048 9.20544C118.147 10.1091 117.64 11.3334 117.64 12.61Z" fill="white"/>
<path d="M134.28 278.24C134.558 278.588 134.911 278.869 135.313 279.061C135.714 279.254 136.155 279.352 136.6 279.35H298.94C299.384 279.349 299.822 279.25 300.223 279.059C300.624 278.867 300.977 278.589 301.256 278.245C301.536 277.9 301.735 277.497 301.84 277.065C301.944 276.634 301.951 276.185 301.86 275.75L299.34 263.78C299.236 263.292 299.011 262.838 298.686 262.459C298.361 262.08 297.946 261.788 297.48 261.61C297.142 261.477 296.783 261.41 296.42 261.41H139.11C138.747 261.41 138.388 261.477 138.05 261.61C137.584 261.788 137.169 262.08 136.844 262.459C136.519 262.838 136.294 263.292 136.19 263.78L133.67 275.75C133.58 276.184 133.589 276.633 133.694 277.064C133.8 277.495 134 277.896 134.28 278.24Z" fill="#2F2E41"/>
<path d="M290.755 266.566H294.779C295.048 266.566 295.267 266.347 295.267 266.078V264.054C295.267 263.784 295.048 263.566 294.779 263.566H290.755C290.486 263.566 290.267 263.784 290.267 264.054V266.078C290.267 266.347 290.486 266.566 290.755 266.566Z" fill="#3F3D56"/>
<path d="M280.755 266.566H284.779C285.049 266.566 285.267 266.347 285.267 266.078V264.054C285.267 263.784 285.049 263.566 284.779 263.566H280.755C280.486 263.566 280.267 263.784 280.267 264.054V266.078C280.267 266.347 280.486 266.566 280.755 266.566Z" fill="#3F3D56"/>
<path d="M270.755 266.566H274.779C275.049 266.566 275.267 266.347 275.267 266.078V264.054C275.267 263.784 275.049 263.566 274.779 263.566H270.755C270.486 263.566 270.267 263.784 270.267 264.054V266.078C270.267 266.347 270.486 266.566 270.755 266.566Z" fill="#3F3D56"/>
<path d="M260.755 266.566H264.779C265.049 266.566 265.267 266.347 265.267 266.078V264.054C265.267 263.784 265.049 263.566 264.779 263.566H260.755C260.486 263.566 260.267 263.784 260.267 264.054V266.078C260.267 266.347 260.486 266.566 260.755 266.566Z" fill="#3F3D56"/>
<path d="M250.755 266.566H254.779C255.049 266.566 255.267 266.347 255.267 266.078V264.054C255.267 263.784 255.049 263.566 254.779 263.566H250.755C250.486 263.566 250.267 263.784 250.267 264.054V266.078C250.267 266.347 250.486 266.566 250.755 266.566Z" fill="#3F3D56"/>
<path d="M240.755 266.566H244.779C245.049 266.566 245.267 266.347 245.267 266.078V264.054C245.267 263.784 245.049 263.566 244.779 263.566H240.755C240.486 263.566 240.267 263.784 240.267 264.054V266.078C240.267 266.347 240.486 266.566 240.755 266.566Z" fill="#3F3D56"/>
<path d="M230.755 266.566H234.779C235.049 266.566 235.267 266.347 235.267 266.078V264.054C235.267 263.784 235.049 263.566 234.779 263.566H230.755C230.486 263.566 230.267 263.784 230.267 264.054V266.078C230.267 266.347 230.486 266.566 230.755 266.566Z" fill="#3F3D56"/>
<path d="M220.755 266.566H224.779C225.049 266.566 225.267 266.347 225.267 266.078V264.054C225.267 263.784 225.049 263.566 224.779 263.566H220.755C220.486 263.566 220.267 263.784 220.267 264.054V266.078C220.267 266.347 220.486 266.566 220.755 266.566Z" fill="#3F3D56"/>
<path d="M210.755 266.566H214.779C215.049 266.566 215.267 266.347 215.267 266.078V264.054C215.267 263.784 215.049 263.566 214.779 263.566H210.755C210.486 263.566 210.267 263.784 210.267 264.054V266.078C210.267 266.347 210.486 266.566 210.755 266.566Z" fill="#3F3D56"/>
<path d="M200.755 266.566H204.779C205.049 266.566 205.267 266.347 205.267 266.078V264.054C205.267 263.784 205.049 263.566 204.779 263.566H200.755C200.486 263.566 200.267 263.784 200.267 264.054V266.078C200.267 266.347 200.486 266.566 200.755 266.566Z" fill="#3F3D56"/>
<path d="M190.755 266.566H194.779C195.049 266.566 195.267 266.347 195.267 266.078V264.054C195.267 263.784 195.049 263.566 194.779 263.566H190.755C190.486 263.566 190.267 263.784 190.267 264.054V266.078C190.267 266.347 190.486 266.566 190.755 266.566Z" fill="#3F3D56"/>
<path d="M180.755 266.566H184.779C185.049 266.566 185.267 266.347 185.267 266.078V264.054C185.267 263.784 185.049 263.566 184.779 263.566H180.755C180.486 263.566 180.267 263.784 180.267 264.054V266.078C180.267 266.347 180.486 266.566 180.755 266.566Z" fill="#3F3D56"/>
<path d="M170.755 266.566H174.779C175.049 266.566 175.267 266.347 175.267 266.078V264.054C175.267 263.784 175.049 263.566 174.779 263.566H170.755C170.486 263.566 170.267 263.784 170.267 264.054V266.078C170.267 266.347 170.486 266.566 170.755 266.566Z" fill="#3F3D56"/>
<path d="M160.755 266.566H164.779C165.049 266.566 165.267 266.347 165.267 266.078V264.054C165.267 263.784 165.049 263.566 164.779 263.566H160.755C160.486 263.566 160.267 263.784 160.267 264.054V266.078C160.267 266.347 160.486 266.566 160.755 266.566Z" fill="#3F3D56"/>
<path d="M150.755 266.566H154.779C155.049 266.566 155.267 266.347 155.267 266.078V264.054C155.267 263.784 155.049 263.566 154.779 263.566H150.755C150.486 263.566 150.267 263.784 150.267 264.054V266.078C150.267 266.347 150.486 266.566 150.755 266.566Z" fill="#3F3D56"/>
<path d="M140.755 266.566H144.779C145.049 266.566 145.267 266.347 145.267 266.078V264.054C145.267 263.784 145.049 263.566 144.779 263.566H140.755C140.486 263.566 140.267 263.784 140.267 264.054V266.078C140.267 266.347 140.486 266.566 140.755 266.566Z" fill="#3F3D56"/>
<path d="M290.873 271.566H294.897C295.167 271.566 295.385 271.347 295.385 271.078V269.054C295.385 268.784 295.167 268.566 294.897 268.566H290.873C290.604 268.566 290.385 268.784 290.385 269.054V271.078C290.385 271.347 290.604 271.566 290.873 271.566Z" fill="#3F3D56"/>
<path d="M280.873 271.566H284.897C285.167 271.566 285.385 271.347 285.385 271.078V269.054C285.385 268.784 285.167 268.566 284.897 268.566H280.873C280.604 268.566 280.385 268.784 280.385 269.054V271.078C280.385 271.347 280.604 271.566 280.873 271.566Z" fill="#3F3D56"/>
<path d="M270.873 271.566H274.897C275.167 271.566 275.385 271.347 275.385 271.078V269.054C275.385 268.784 275.167 268.566 274.897 268.566H270.873C270.604 268.566 270.385 268.784 270.385 269.054V271.078C270.385 271.347 270.604 271.566 270.873 271.566Z" fill="#3F3D56"/>
<path d="M260.873 271.566H264.897C265.167 271.566 265.385 271.347 265.385 271.078V269.054C265.385 268.784 265.167 268.566 264.897 268.566H260.873C260.604 268.566 260.385 268.784 260.385 269.054V271.078C260.385 271.347 260.604 271.566 260.873 271.566Z" fill="#3F3D56"/>
<path d="M250.873 271.566H254.897C255.167 271.566 255.385 271.347 255.385 271.078V269.054C255.385 268.784 255.167 268.566 254.897 268.566H250.873C250.604 268.566 250.385 268.784 250.385 269.054V271.078C250.385 271.347 250.604 271.566 250.873 271.566Z" fill="#3F3D56"/>
<path d="M240.873 271.566H244.897C245.167 271.566 245.385 271.347 245.385 271.078V269.054C245.385 268.784 245.167 268.566 244.897 268.566H240.873C240.604 268.566 240.385 268.784 240.385 269.054V271.078C240.385 271.347 240.604 271.566 240.873 271.566Z" fill="#3F3D56"/>
<path d="M230.873 271.566H234.897C235.167 271.566 235.385 271.347 235.385 271.078V269.054C235.385 268.784 235.167 268.566 234.897 268.566H230.873C230.604 268.566 230.385 268.784 230.385 269.054V271.078C230.385 271.347 230.604 271.566 230.873 271.566Z" fill="#3F3D56"/>
<path d="M220.873 271.566H224.897C225.167 271.566 225.385 271.347 225.385 271.078V269.054C225.385 268.784 225.167 268.566 224.897 268.566H220.873C220.604 268.566 220.385 268.784 220.385 269.054V271.078C220.385 271.347 220.604 271.566 220.873 271.566Z" fill="#3F3D56"/>
<path d="M210.873 271.566H214.897C215.167 271.566 215.385 271.347 215.385 271.078V269.054C215.385 268.784 215.167 268.566 214.897 268.566H210.873C210.604 268.566 210.385 268.784 210.385 269.054V271.078C210.385 271.347 210.604 271.566 210.873 271.566Z" fill="#3F3D56"/>
<path d="M200.873 271.566H204.897C205.167 271.566 205.385 271.347 205.385 271.078V269.054C205.385 268.784 205.167 268.566 204.897 268.566H200.873C200.604 268.566 200.385 268.784 200.385 269.054V271.078C200.385 271.347 200.604 271.566 200.873 271.566Z" fill="#3F3D56"/>
<path d="M190.873 271.566H194.897C195.167 271.566 195.385 271.347 195.385 271.078V269.054C195.385 268.784 195.167 268.566 194.897 268.566H190.873C190.604 268.566 190.385 268.784 190.385 269.054V271.078C190.385 271.347 190.604 271.566 190.873 271.566Z" fill="#3F3D56"/>
<path d="M180.873 271.566H184.897C185.167 271.566 185.385 271.347 185.385 271.078V269.054C185.385 268.784 185.167 268.566 184.897 268.566H180.873C180.604 268.566 180.385 268.784 180.385 269.054V271.078C180.385 271.347 180.604 271.566 180.873 271.566Z" fill="#3F3D56"/>
<path d="M170.873 271.566H174.897C175.167 271.566 175.385 271.347 175.385 271.078V269.054C175.385 268.784 175.167 268.566 174.897 268.566H170.873C170.604 268.566 170.385 268.784 170.385 269.054V271.078C170.385 271.347 170.604 271.566 170.873 271.566Z" fill="#3F3D56"/>
<path d="M160.873 271.566H164.897C165.167 271.566 165.385 271.347 165.385 271.078V269.054C165.385 268.784 165.167 268.566 164.897 268.566H160.873C160.604 268.566 160.385 268.784 160.385 269.054V271.078C160.385 271.347 160.604 271.566 160.873 271.566Z" fill="#3F3D56"/>
<path d="M150.873 271.566H154.897C155.167 271.566 155.385 271.347 155.385 271.078V269.054C155.385 268.784 155.167 268.566 154.897 268.566H150.873C150.604 268.566 150.385 268.784 150.385 269.054V271.078C150.385 271.347 150.604 271.566 150.873 271.566Z" fill="#3F3D56"/>
<path d="M140.873 271.566H144.897C145.167 271.566 145.385 271.347 145.385 271.078V269.054C145.385 268.784 145.167 268.566 144.897 268.566H140.873C140.604 268.566 140.385 268.784 140.385 269.054V271.078C140.385 271.347 140.604 271.566 140.873 271.566Z" fill="#3F3D56"/>
<path d="M163.493 55.9196C165.437 55.7185 166.911 54.0429 166.844 52.0322C166.777 50.0214 165.102 48.4129 163.091 48.4129H162.957C160.879 48.4799 159.271 50.2225 159.338 52.3003C159.405 53.3056 159.807 54.1769 160.41 54.7802C158.131 59.2708 154.646 62.555 149.418 65.3029C145.866 67.1796 142.18 67.8499 138.494 67.3807C135.478 66.9786 133.132 65.6381 131.658 63.4263C129.513 60.1421 129.312 56.5898 131.122 53.0375C132.395 50.4906 134.406 48.6139 135.679 47.6756C135.411 46.8043 135.009 45.3298 134.808 44.2574C125.09 51.2949 126.095 60.8123 129.044 65.3029C131.256 68.6542 135.746 70.7319 140.706 70.7319C142.046 70.7319 143.387 70.5979 144.727 70.2627C153.306 68.5871 159.807 63.4933 163.493 55.9196ZM175.289 47.6086C170.195 41.6434 162.689 38.3592 154.11 38.3592H153.038C152.434 37.1528 151.161 36.3485 149.754 36.3485H149.62C147.542 36.4155 145.933 38.1582 146 40.2359C146.067 42.2466 147.743 43.8552 149.754 43.8552H149.888C151.362 43.7882 152.636 42.8499 153.172 41.5764H154.378C159.472 41.5764 164.297 43.0509 168.654 45.933C172.005 48.1448 174.418 51.0268 175.758 54.5121C176.897 57.3271 176.83 60.0751 175.624 62.4209C173.747 65.9732 170.597 67.9169 166.442 67.9169C163.761 67.9169 161.214 67.1126 159.874 66.5094C159.137 67.1796 157.796 68.252 156.858 68.9223C159.74 70.2627 162.689 71 165.504 71C171.938 71 176.696 67.4477 178.506 63.8954C180.45 60.008 180.315 53.3056 175.289 47.6086ZM141.242 57.059C141.309 59.0697 142.984 60.6783 144.995 60.6783H145.129C147.207 60.6113 148.815 58.8686 148.748 56.7909C148.681 54.7802 147.006 53.1716 144.995 53.1716H144.861C144.727 53.1716 144.526 53.1716 144.392 53.2386C141.644 48.681 140.505 43.7212 140.907 38.3592C141.175 34.3378 142.515 30.8525 144.861 27.9705C146.805 25.4906 150.558 24.2842 153.105 24.2172C160.209 24.0831 163.225 32.9303 163.426 36.4826C164.297 36.6836 165.772 37.1528 166.777 37.4879C165.973 26.63 159.271 21 152.837 21C146.805 21 141.242 25.3566 139.03 31.7909C135.947 40.37 137.958 48.6139 141.711 55.1153C141.376 55.5845 141.175 56.3217 141.242 57.059Z" fill="#764ABC"/>
<path d="M388 79H338V129H388V79Z" fill="#FFE600"/>
<path d="M371.588 118.062C372.595 119.706 373.905 120.915 376.222 120.915C378.169 120.915 379.413 119.942 379.413 118.598C379.413 116.987 378.135 116.416 375.992 115.479L374.818 114.975C371.427 113.53 369.175 111.721 369.175 107.895C369.175 104.372 371.86 101.689 376.056 101.689C379.043 101.689 381.191 102.729 382.738 105.451L379.08 107.8C378.274 106.356 377.405 105.787 376.056 105.787C374.68 105.787 373.807 106.66 373.807 107.8C373.807 109.21 374.68 109.78 376.696 110.653L377.871 111.156C381.863 112.868 384.117 114.614 384.117 118.537C384.117 122.768 380.794 125.085 376.331 125.085C371.968 125.085 369.149 123.006 367.769 120.28L371.588 118.062ZM354.99 118.469C355.728 119.779 356.399 120.886 358.014 120.886C359.557 120.886 360.531 120.282 360.531 117.933V101.957H365.23V117.997C365.23 122.862 362.377 125.076 358.214 125.076C354.452 125.076 352.273 123.129 351.165 120.785L354.99 118.469Z" fill="black"/>
<path d="M324.513 27.0411H340.111V28.2831H325.942V37.6339H339.266V38.876H325.942V49.1423H340.273V50.386H324.513V27.0411ZM341.508 27.0411H343.165L350.51 37.3074L358.018 27.0411L368.225 14L351.452 38.3863L360.102 50.386H358.372L350.51 39.4619L342.613 50.3828H340.924L349.632 38.383L341.508 27.0411ZM360.713 28.2831V27.0411H378.487V28.2831H370.298V50.3844H368.868V28.2831H360.708H360.713ZM305 27.0411H306.795L331.441 64L321.256 50.386L306.495 28.8054L306.43 50.386H305V27.0411ZM378.343 48.7653C378.24 48.7672 378.138 48.7383 378.051 48.6822C377.964 48.6261 377.896 48.5454 377.855 48.4504C377.814 48.3553 377.803 48.2503 377.822 48.1486C377.841 48.0469 377.89 47.9532 377.962 47.8795C378.035 47.8058 378.128 47.7553 378.229 47.7346C378.331 47.7139 378.436 47.7238 378.532 47.7632C378.627 47.8026 378.709 47.8695 378.766 47.9556C378.824 48.0416 378.854 48.1428 378.854 48.2463C378.856 48.3142 378.844 48.3818 378.819 48.445C378.794 48.5083 378.757 48.5658 378.709 48.6143C378.661 48.6627 378.604 48.7011 378.541 48.727C378.479 48.753 378.411 48.766 378.343 48.7653ZM379.749 47.3975H380.514C380.514 47.4942 380.534 47.5897 380.573 47.6781C380.612 47.7666 380.669 47.846 380.74 47.9113C380.811 47.9767 380.895 48.0265 380.987 48.0578C381.078 48.089 381.175 48.101 381.271 48.0928C381.769 48.0928 382.052 47.7925 382.052 47.2311V43.6729H382.83V47.2359C382.83 48.2479 382.246 48.8306 381.28 48.8306C380.372 48.8306 379.749 48.2659 379.749 47.3992V47.3975ZM383.849 47.3535H384.621C384.688 47.8301 385.153 48.1336 385.823 48.1336C386.45 48.1336 386.909 47.8072 386.909 47.3633C386.909 46.9797 386.617 46.7496 385.952 46.5929L385.3 46.4297C384.392 46.2158 383.978 45.7768 383.978 45.0358C383.978 44.1397 384.707 43.5423 385.802 43.5423C386.822 43.5423 387.567 44.1397 387.612 44.9868H386.853C386.78 44.5233 386.377 44.2327 385.792 44.2327C385.177 44.2327 384.767 44.5298 384.767 44.9835C384.767 45.3426 385.032 45.5499 385.685 45.7033L386.238 45.8388C387.268 46.0787 387.692 46.4917 387.692 47.2555C387.692 48.2185 386.946 48.8224 385.758 48.8224C384.645 48.8224 383.898 48.2463 383.842 47.3453L383.849 47.3535Z" fill="black"/>
<path d="M259.368 125.505C265.17 125.505 269.873 120.802 269.873 115C269.873 109.198 265.17 104.495 259.368 104.495C253.566 104.495 248.863 109.198 248.863 115C248.863 120.802 253.566 125.505 259.368 125.505Z" fill="#00E0FF"/>
<path d="M259.369 136.522C290.501 136.522 315.739 126.886 315.739 115C315.739 103.113 290.501 93.4768 259.369 93.4768C228.237 93.4768 203 103.113 203 115C203 126.886 228.237 136.522 259.369 136.522Z" stroke="#00E0FF" stroke-width="6"/>
<path d="M240.727 125.761C256.293 152.723 277.257 169.761 287.551 163.817C297.846 157.874 293.572 131.2 278.006 104.239C262.44 77.2775 241.476 60.2393 231.182 66.1827C220.888 72.1261 225.161 98.8005 240.727 125.761Z" stroke="#00E0FF" stroke-width="6"/>
<path d="M240.727 104.238C225.161 131.2 220.888 157.874 231.182 163.817C241.476 169.761 262.44 152.722 278.006 125.761C293.572 98.8004 297.846 72.126 287.551 66.1827C277.257 60.2393 256.293 77.2775 240.727 104.238Z" stroke="#00E0FF" stroke-width="6"/>
<path fill-rule="evenodd" clip-rule="evenodd" d="M159.724 144C149.667 144 143.379 149 140.862 159C144.636 154.002 149.036 152.127 154.063 153.376C156.937 154.088 158.975 156.157 161.259 158.447C164.943 162.181 169.241 166.497 178.586 166.497C188.643 166.497 194.931 161.497 197.448 151.497C193.678 156.499 189.278 158.374 184.247 157.121C181.374 156.409 179.335 154.34 177.051 152.05C173.355 148.298 169.075 144 159.724 144ZM140.862 166.497C130.805 166.497 124.517 171.497 122 181.497C125.778 176.499 130.178 174.624 135.201 175.873C138.074 176.585 140.113 178.654 142.397 180.95C146.081 184.677 150.379 189 159.724 189C169.781 189 176.069 184 178.586 174C174.816 178.998 170.416 180.869 165.385 179.612C162.512 178.9 160.473 176.831 158.189 174.54C154.505 170.807 150.207 166.485 140.862 166.485V166.497Z" fill="#06B6D4"/>
<path d="M207.873 277.566H246.897C247.167 277.566 247.385 277.347 247.385 277.078V275.054C247.385 274.784 247.167 274.566 246.897 274.566H207.873C207.604 274.566 207.385 274.784 207.385 275.054V277.078C207.385 277.347 207.604 277.566 207.873 277.566Z" fill="#3F3D56"/>
<path d="M236.642 147.717H204.036C202.446 147.717 201.156 149.006 201.156 150.597C201.156 152.188 202.446 153.477 204.036 153.477H236.642C238.233 153.477 239.522 152.188 239.522 150.597C239.522 149.006 238.233 147.717 236.642 147.717Z" fill="#E6E6E6"/>
<path d="M94.1001 335.04C94.7101 335.35 95.3301 335.66 95.9401 335.96C111.74 343.86 124.38 348.35 141.67 353.27C143.13 336.97 144.54 308.32 145.91 290.56C146.27 285.95 146.63 282.08 146.98 279.35C147.068 277.899 147.365 276.467 147.86 275.1L147.8 279.35L147.65 290.56L146.78 354.67C168.288 360.361 190.381 363.545 212.62 364.16C213.78 364.19 214.92 364.21 216.02 364.23C216.41 364.24 216.79 364.25 217.17 364.25C218.42 364.26 219.66 364.27 220.91 364.27C244.346 364.287 267.697 361.457 290.45 355.84C289.96 339.71 289.47 311.38 289 290.56C288.9 286.49 288.81 282.7 288.71 279.35C288.52 272.19 288.32 267.03 288.13 265.3C288.298 265.607 288.429 265.932 288.52 266.27C289.446 270.582 290.078 274.952 290.41 279.35C290.76 282.7 291.11 286.49 291.46 290.56C293.32 312.19 295.26 341.6 297.26 354.07C309.164 350.82 320.846 346.802 332.23 342.04C338.23 339.54 344.123 336.843 349.91 333.95C348.81 326.75 347.66 318.68 346.48 310.31C345.56 303.82 344.61 297.15 343.64 290.56C342.14 280.38 319.85 209.24 318.44 206.54C317.23 204.23 316.08 202.05 314.99 200.04C312.35 195.16 310.11 191.27 308.45 188.81C301.51 178.283 291.178 170.446 279.17 166.6L278.87 166.52L278.66 166.61L258.21 160.33L255.22 159.41L253.21 158.79L246.13 153.4L242.28 150.47L238.67 147.72L231.61 142.35L187.9 145.04L179.39 165.53L160.33 172.5L160 172.35L159.71 172.23L159.41 172.31C147.404 176.159 137.073 183.996 130.13 194.52C129.19 195.93 128.05 197.79 126.76 200.04C125.66 201.95 124.46 204.13 123.16 206.54C121.31 209.97 119.29 213.84 117.15 218.03C116.68 218.95 116.2 219.89 115.72 220.84C114.83 222.6 113.927 224.397 113.01 226.23C110.88 230.48 108.68 234.92 106.48 239.43C104.57 243.34 102.64 251.38 100.74 261.61C99.1702 270.11 97.6102 280.13 96.1002 290.56C94.1202 304.08 96.2302 320.27 94.4402 332.71C94.3301 333.5 94.2101 334.27 94.1001 335.04Z" fill="#C99800"/>
<path opacity="0.2" d="M303.59 261.566L295.093 228.774L287.59 257.07L303.59 261.566Z" fill="black"/>
<path d="M77.48 240.2C80.52 282.08 77.37 300.52 94.15 335.05C109.417 342.523 125.32 348.62 141.67 353.27C143.37 353.75 145.073 354.217 146.78 354.67C168.287 360.361 190.381 363.545 212.62 364.16C213.78 364.19 214.92 364.21 216.02 364.23C216.41 364.24 216.79 364.25 217.17 364.25C218.42 364.26 219.66 364.27 220.91 364.27C244.346 364.287 267.697 361.457 290.45 355.84C292.73 355.28 295 354.69 297.26 354.07C309.164 350.82 320.846 346.802 332.23 342.04C338.23 339.54 344.123 336.843 349.91 333.95C351.22 333.29 352.53 332.63 353.82 331.95C360.45 320.29 364.22 306.11 364.3 289.07C359.71 259.71 87.62 214.88 77.48 240.2Z" fill="#2F2E41"/>
<path opacity="0.2" d="M77.4879 247.372C77.3326 244.779 77.159 242.101 76.9565 239.312C87.0965 213.992 359.187 258.822 363.777 288.182C363.764 290.874 363.649 293.486 363.455 296.037C352.34 267.059 93.8505 224.451 77.4879 247.372Z" fill="black"/>
<path d="M15.8293 261.186C16.2699 262.469 17.1056 263.579 18.2165 264.357C19.3274 265.135 20.6563 265.541 22.0124 265.517L48.5043 264.835C49.8703 264.808 51.191 264.34 52.2691 263.501C53.3471 262.662 54.1245 261.496 54.4851 260.178L58.234 220.091C59.5641 220.693 61.012 220.991 62.4719 220.962C65.0323 220.896 67.4617 219.816 69.2261 217.959C70.9905 216.103 71.9456 213.621 71.8813 211.061C71.817 208.501 70.7387 206.07 68.8833 204.305C67.028 202.539 64.5474 201.582 61.987 201.645C61.4035 201.643 60.8214 201.704 60.2508 201.826C59.6302 201.154 58.8759 200.62 58.0365 200.258C57.197 199.896 56.291 199.713 55.3768 199.723L14.6262 200.775C14.2882 200.787 13.9519 200.829 13.621 200.9C12.7274 201.066 11.8798 201.422 11.1353 201.944C10.3908 202.466 9.76667 203.141 9.30495 203.924C8.84322 204.707 8.5546 205.58 8.45851 206.484C8.36242 207.388 8.46108 208.302 8.74786 209.164L15.8293 261.186ZM59.0028 217.369L61.6704 207.816C61.9739 206.713 61.9809 205.549 61.6908 204.442C61.8202 204.441 61.9344 204.38 62.0638 204.38C63.8929 204.342 65.6624 205.031 66.9843 206.296C68.3061 207.56 69.0725 209.298 69.1153 211.127C69.1581 212.956 68.4739 214.727 67.2128 216.053C65.9516 217.378 64.2163 218.149 62.3874 218.197C61.2049 218.234 60.0347 217.948 59.0028 217.369Z" fill="#2F2E41"/>
<path d="M13.6211 200.9C14.4893 205.864 24.2502 209.353 35.9869 208.747C46.7796 208.25 55.6044 204.46 57.2212 199.968C56.6228 199.791 56.0006 199.708 55.3768 199.723L14.6263 200.775C14.2882 200.787 13.9519 200.829 13.6211 200.9V200.9Z" fill="#3F3D56"/>
<path d="M154.966 78.5899C157.09 93.7 165.125 107.349 177.307 116.538C189.488 125.727 204.819 129.704 219.932 127.596C235.044 125.488 248.701 117.466 257.903 105.294C267.104 93.1218 271.097 77.7947 269.004 62.6803L268.89 61.8635C266.454 46.9529 258.256 33.5971 246.062 24.6772C233.868 15.7573 218.656 11.9881 203.708 14.1828C188.761 16.3775 175.274 24.3602 166.159 36.4088C157.044 48.4573 153.03 63.6062 154.984 78.5875L154.966 78.5899Z" fill="#FFB6B6"/>
<path d="M205.718 126.194C202.742 120.198 199.683 113.761 200.492 107.116C201.3 100.471 207.793 94.1005 214.195 96.0531C218.024 97.2207 220.928 100.988 224.926 101.168C230.428 101.415 233.561 95.1088 235.256 89.8685L242.158 68.5261C255.472 78.985 238.611 68.0202 255.102 64.1915C261.572 62.6895 268.104 59.7812 271.884 54.3197C275.664 48.8582 275.612 40.4062 270.389 36.3034C267.828 34.2917 264.426 33.5355 261.978 31.3879C260.459 30.0556 259.409 28.2698 258.984 26.2947C258.559 24.3196 258.781 22.2602 259.618 20.4212C260.454 18.5821 261.861 17.0613 263.629 16.0836C265.397 15.1059 267.432 14.7234 269.434 14.9926L251.868 12.8568L257.068 3.37712C253.308 6.36143 248.063 6.77863 243.336 5.94384C238.609 5.10905 234.154 3.17885 229.528 1.89714C207.321 -4.25586 181.572 6.65801 170.55 26.8953C166.225 25.4669 161.567 25.3866 157.194 26.665C152.822 27.9434 148.941 30.5202 146.066 34.0539C141.386 40.0356 140.134 48.0013 139.977 55.595C139.686 70.5676 143 85.3907 149.64 98.8135C151.709 102.985 154.156 107.077 157.673 110.128C161.191 113.18 200.945 130.083 205.533 129.286" fill="#7E522A"/>
<path d="M388 138H338V188H388V138Z" fill="#1976D2"/>
<path d="M367.849 160.222H349.428V164.755H356.035V185.222H361.269V164.755H367.849V160.222Z" fill="white"/>
<path d="M384.104 165.894C384.104 165.894 381.622 164.238 378.817 164.238C376.011 164.238 375.001 165.572 375.001 166.997C375.001 170.675 385.253 170.306 385.253 177.708C385.253 189.109 369.622 184.052 369.622 184.052V178.583C369.622 178.583 372.611 180.836 376.196 180.836C379.78 180.836 379.644 178.491 379.644 178.169C379.644 174.768 369.485 174.768 369.485 167.227C369.485 156.976 384.287 161.02 384.287 161.02L384.104 165.894Z" fill="white"/>
<path d="M25.2275 233.97L27.7764 223.203H29.2002L29.5254 224.996L26.8096 236H25.2803L25.2275 233.97ZM23.918 223.203L26.0273 233.97L25.8516 236H24.1465L21.3076 223.203H23.918ZM31.7666 233.926L33.8496 223.203H36.46L33.6299 236H31.9248L31.7666 233.926ZM30 223.203L32.5664 234.014L32.4961 236H30.9668L28.2334 224.987L28.585 223.203H30ZM41.449 225.392L37.9685 236H35.1648L39.9197 223.203H41.7039L41.449 225.392ZM44.3406 236L40.8513 225.392L40.5701 223.203H42.3718L47.1531 236H44.3406ZM44.1824 231.236V233.302H37.4236V231.236H44.1824Z" fill="white"/>
<path d="M25.2275 249.97L27.7764 239.203H29.2002L29.5254 240.996L26.8096 252H25.2803L25.2275 249.97ZM23.918 239.203L26.0273 249.97L25.8516 252H24.1465L21.3076 239.203H23.918ZM31.7666 249.926L33.8496 239.203H36.46L33.6299 252H31.9248L31.7666 249.926ZM30 239.203L32.5664 250.014L32.4961 252H30.9668L28.2334 240.987L28.585 239.203H30ZM41.449 241.392L37.9685 252H35.1648L39.9197 239.203H41.7039L41.449 241.392ZM44.3406 252L40.8513 241.392L40.5701 239.203H42.3718L47.1531 252H44.3406ZM44.1824 247.236V249.302H37.4236V247.236H44.1824Z" fill="white"/>
</svg>
