<svg width="400" height="423" viewBox="0 0 400 423" fill="none" xmlns="http://www.w3.org/2000/svg">
<rect width="400" height="400" fill="#EAB308"/>
<path d="M212.82 254.758L233.211 168.625H244.602L247.203 182.969L225.477 271H213.242L212.82 254.758ZM202.344 168.625L219.219 254.758L217.812 271H204.172L181.461 168.625H202.344ZM265.133 254.406L281.797 168.625H302.68L280.039 271H266.398L265.133 254.406ZM251 168.625L271.531 255.109L270.969 271H258.734L236.867 182.898L239.68 168.625H251ZM342.592 186.133L314.748 271H292.318L330.357 168.625H344.631L342.592 186.133ZM365.725 271L337.811 186.133L335.561 168.625H349.975L388.225 271H365.725ZM364.459 232.891V249.414H310.389V232.891H364.459Z" fill="black"/>
<path d="M212.82 372.063L233.211 285.93H244.602L247.203 300.274L225.477 388.305H213.242L212.82 372.063ZM202.344 285.93L219.219 372.063L217.812 388.305H204.172L181.461 285.93H202.344ZM265.133 371.711L281.797 285.93H302.68L280.039 388.305H266.398L265.133 371.711ZM251 285.93L271.531 372.415L270.969 388.305H258.734L236.867 300.204L239.68 285.93H251ZM342.592 303.438L314.748 388.305H292.318L330.357 285.93H344.631L342.592 303.438ZM365.725 388.305L337.811 303.438L335.561 285.93H349.975L388.225 388.305H365.725ZM364.459 350.196V366.719H310.389V350.196H364.459Z" fill="black"/>
</svg>
