<svg width="414" height="111" viewBox="0 0 414 111" fill="none" xmlns="http://www.w3.org/2000/svg">
<rect width="414" height="111" fill="white"/>
<circle cx="48" cy="56" r="25" fill="black"/>
<ellipse cx="88.5" cy="56" rx="14.5" ry="25" fill="black"/>
<ellipse cx="110" cy="56" rx="6" ry="25" fill="black"/>
<path d="M211.586 34.272C210.85 34.3433 210.113 34.5096 209.376 34.771C208.64 35.0086 207.915 35.3175 207.202 35.6978C206.109 36.3156 205.325 36.9928 204.85 37.7295C204.398 38.4661 203.982 39.3573 203.602 40.4028C202.295 44.0148 200.275 49.8011 197.542 57.7617C194.833 65.7223 192.006 73.9919 189.059 82.5703H181.895L168.528 44.9653L156.48 82.5703H149.315C145.347 71.0215 142.305 62.1341 140.19 55.9082C138.076 49.6585 136.293 44.4188 134.844 40.189C134.392 38.9058 133.881 37.979 133.311 37.4087C132.741 36.8146 132.004 36.2205 131.101 35.6265C130.459 35.1987 129.77 34.8898 129.034 34.6997C128.321 34.4858 127.489 34.3195 126.539 34.2007V31.4204H153.521V34.1294C151.929 34.3195 150.741 34.5096 149.957 34.6997C149.173 34.866 148.555 35.0443 148.104 35.2344C147.676 35.4245 147.414 35.6265 147.319 35.8403C147.224 36.0542 147.177 36.2443 147.177 36.4106C147.177 36.7433 147.212 37.0641 147.284 37.373C147.379 37.682 147.474 38.0384 147.569 38.4424C148.139 40.2959 149.292 43.8128 151.026 48.9932C152.761 54.1735 154.9 60.6014 157.442 68.2769L168.956 31.4204H176.512L189.879 69.4175C191.851 63.3104 193.42 58.3201 194.584 54.4468C195.772 50.5734 196.77 47.2585 197.578 44.502C198.053 42.8148 198.434 41.4009 198.719 40.2603C199.004 39.1196 199.146 38.1335 199.146 37.3018C199.146 36.8027 198.909 36.375 198.434 36.0186C197.982 35.6621 197.364 35.3532 196.58 35.0918C195.915 34.8779 195.047 34.7116 193.978 34.5928C192.932 34.4502 192.018 34.3433 191.233 34.272V31.4204H211.586V34.272ZM237.747 81.2515C236.701 81.703 235.465 82.1188 234.04 82.499C232.614 82.8792 231.105 83.0693 229.513 83.0693C226.59 83.0693 224.439 82.6416 223.061 81.7861C221.683 80.9069 220.744 79.6593 220.245 78.0435H220.031C219.223 78.8514 218.439 79.5405 217.679 80.1108C216.942 80.6812 216.146 81.1683 215.291 81.5723C214.174 82.0951 213.093 82.4753 212.047 82.7129C211.025 82.9743 209.587 83.105 207.734 83.105C204.977 83.105 202.625 82.297 200.676 80.6812C198.728 79.0415 197.753 76.8791 197.753 74.1938C197.753 72.6493 197.967 71.3423 198.395 70.2729C198.823 69.1799 199.429 68.2174 200.213 67.3857C200.926 66.6253 201.746 65.9956 202.672 65.4966C203.623 64.9976 204.657 64.5342 205.774 64.1064C207.912 63.3223 210.479 62.5143 213.473 61.6826C216.467 60.8271 218.653 60.0667 220.031 59.4014V55.9795C220.031 55.3854 219.984 54.6012 219.889 53.627C219.794 52.6527 219.592 51.8328 219.283 51.1675C218.95 50.4071 218.427 49.7655 217.714 49.2427C217.002 48.7199 216.063 48.4585 214.899 48.4585C213.853 48.4585 212.974 48.613 212.261 48.9219C211.572 49.207 211.013 49.5041 210.586 49.813C210.657 50.2882 210.859 51.013 211.191 51.9873C211.524 52.9616 211.691 53.9002 211.691 54.8032C211.691 55.2072 211.584 55.7181 211.37 56.3359C211.156 56.93 210.847 57.4053 210.443 57.7617C209.896 58.237 209.279 58.6053 208.589 58.8667C207.924 59.1281 206.89 59.2588 205.488 59.2588C203.492 59.2588 201.983 58.7835 200.962 57.833C199.94 56.8587 199.429 55.5993 199.429 54.0547C199.429 52.724 199.952 51.5358 200.997 50.4902C202.066 49.4209 203.362 48.5417 204.882 47.8525C206.379 47.1396 208.102 46.5931 210.051 46.2129C211.999 45.8089 213.805 45.6069 215.469 45.6069C217.774 45.6069 219.889 45.7495 221.814 46.0347C223.738 46.2961 225.473 46.8545 227.018 47.71C228.491 48.5417 229.655 49.7536 230.511 51.3457C231.39 52.9141 231.83 54.9696 231.83 57.5122C231.83 60.1974 231.77 63.3817 231.651 67.0649C231.556 70.7482 231.509 73.172 231.509 74.3364C231.509 75.4058 231.663 76.2493 231.972 76.8672C232.305 77.485 232.804 77.9484 233.469 78.2573C233.873 78.4474 234.503 78.5662 235.358 78.6138C236.238 78.6375 237.034 78.6494 237.747 78.6494V81.2515ZM220.031 62.6807C218.701 63.1322 217.382 63.6549 216.075 64.249C214.768 64.8193 213.698 65.4253 212.867 66.0669C211.988 66.7323 211.298 67.5877 210.799 68.6333C210.3 69.6551 210.051 70.867 210.051 72.269C210.051 74.1226 210.467 75.4652 211.298 76.2969C212.154 77.1286 213.199 77.5444 214.435 77.5444C215.742 77.5444 216.811 77.283 217.643 76.7603C218.499 76.2137 219.247 75.5483 219.889 74.7642L220.031 62.6807ZM281.828 82H260.37V79.3979C260.821 79.3504 261.368 79.291 262.009 79.2197C262.651 79.1484 263.138 79.0296 263.471 78.8633C263.97 78.6019 264.326 78.2217 264.54 77.7227C264.754 77.2236 264.861 76.487 264.861 75.5127V58.8311C264.861 56.4072 264.409 54.5894 263.506 53.3774C262.627 52.1418 261.32 51.5239 259.585 51.5239C258.635 51.5239 257.744 51.6665 256.912 51.9517C256.104 52.2368 255.308 52.6527 254.524 53.1992C253.835 53.6745 253.276 54.1616 252.849 54.6606C252.445 55.1597 252.1 55.5993 251.815 55.9795V75.1206C251.815 75.9523 251.934 76.6533 252.171 77.2236C252.409 77.7702 252.801 78.186 253.348 78.4712C253.728 78.6851 254.203 78.8752 254.773 79.0415C255.344 79.2078 255.902 79.3267 256.449 79.3979V82H234.777V79.3979C235.371 79.3504 235.965 79.291 236.559 79.2197C237.177 79.1247 237.7 79.0059 238.127 78.8633C238.888 78.6019 239.411 78.1979 239.696 77.6514C239.981 77.1048 240.123 76.3919 240.123 75.5127V54.7676C240.123 54.0309 239.933 53.3062 239.553 52.5933C239.173 51.8804 238.674 51.2982 238.056 50.8467C237.628 50.5615 237.082 50.3239 236.416 50.1338C235.775 49.9437 235.062 49.813 234.278 49.7417V47.1396L251.28 46.2129L251.815 46.7476V51.916H251.957C252.623 51.3219 253.431 50.609 254.381 49.7773C255.332 48.9456 256.211 48.2684 257.019 47.7456C257.898 47.1753 259.051 46.6882 260.476 46.2842C261.902 45.8802 263.423 45.6782 265.039 45.6782C268.912 45.6782 271.811 46.7832 273.736 48.9932C275.685 51.1794 276.659 54.0903 276.659 57.7261V75.1919C276.659 76.0711 276.79 76.7721 277.051 77.2949C277.313 77.8177 277.8 78.2336 278.513 78.5425C278.893 78.7088 279.356 78.8752 279.903 79.0415C280.473 79.2078 281.115 79.3267 281.828 79.3979V82ZM326.514 82H305.056V79.3979C305.508 79.3504 306.054 79.291 306.696 79.2197C307.338 79.1484 307.825 79.0296 308.157 78.8633C308.656 78.6019 309.013 78.2217 309.227 77.7227C309.441 77.2236 309.548 76.487 309.548 75.5127V58.8311C309.548 56.4072 309.096 54.5894 308.193 53.3774C307.314 52.1418 306.007 51.5239 304.272 51.5239C303.322 51.5239 302.431 51.6665 301.599 51.9517C300.791 52.2368 299.995 52.6527 299.211 53.1992C298.522 53.6745 297.963 54.1616 297.535 54.6606C297.131 55.1597 296.787 55.5993 296.502 55.9795V75.1206C296.502 75.9523 296.62 76.6533 296.858 77.2236C297.096 77.7702 297.488 78.186 298.034 78.4712C298.415 78.6851 298.89 78.8752 299.46 79.0415C300.03 79.2078 300.589 79.3267 301.135 79.3979V82H279.464V79.3979C280.058 79.3504 280.652 79.291 281.246 79.2197C281.864 79.1247 282.386 79.0059 282.814 78.8633C283.575 78.6019 284.097 78.1979 284.383 77.6514C284.668 77.1048 284.81 76.3919 284.81 75.5127V54.7676C284.81 54.0309 284.62 53.3062 284.24 52.5933C283.86 51.8804 283.361 51.2982 282.743 50.8467C282.315 50.5615 281.769 50.3239 281.103 50.1338C280.462 49.9437 279.749 49.813 278.965 49.7417V47.1396L295.967 46.2129L296.502 46.7476V51.916H296.644C297.31 51.3219 298.118 50.609 299.068 49.7773C300.019 48.9456 300.898 48.2684 301.706 47.7456C302.585 47.1753 303.738 46.6882 305.163 46.2842C306.589 45.8802 308.11 45.6782 309.726 45.6782C313.599 45.6782 316.498 46.7832 318.423 48.9932C320.372 51.1794 321.346 54.0903 321.346 57.7261V75.1919C321.346 76.0711 321.477 76.7721 321.738 77.2949C321.999 77.8177 322.487 78.2336 323.199 78.5425C323.58 78.7088 324.043 78.8752 324.59 79.0415C325.16 79.2078 325.801 79.3267 326.514 79.3979V82ZM359.263 73.481C358.431 74.8354 357.422 76.1187 356.233 77.3306C355.069 78.5187 353.738 79.5405 352.241 80.396C350.649 81.299 349.033 81.9762 347.394 82.4277C345.778 82.903 343.912 83.1406 341.797 83.1406C338.28 83.1406 335.239 82.6416 332.672 81.6436C330.13 80.6455 328.027 79.3029 326.363 77.6157C324.7 75.9285 323.452 73.9443 322.621 71.6631C321.813 69.3581 321.409 66.863 321.409 64.1777C321.409 61.7539 321.848 59.437 322.728 57.2271C323.631 54.9933 324.902 53.0091 326.541 51.2744C328.157 49.5872 330.189 48.2209 332.637 47.1753C335.108 46.1297 337.865 45.6069 340.906 45.6069C344.233 45.6069 346.966 46.0109 349.104 46.8188C351.243 47.6268 353.013 48.7437 354.415 50.1694C355.77 51.5239 356.756 53.1279 357.374 54.9814C357.992 56.8112 358.301 58.736 358.301 60.7559V63.0728H334.205C334.205 67.9442 335.144 71.6512 337.021 74.1938C338.898 76.7365 341.881 78.0078 345.968 78.0078C348.201 78.0078 350.209 77.4019 351.992 76.1899C353.774 74.9543 355.295 73.3978 356.554 71.5205L359.263 73.481ZM345.647 59.936C345.647 58.5103 345.576 57.0488 345.433 55.5518C345.29 54.0547 345.041 52.8309 344.685 51.8804C344.281 50.7635 343.722 49.9199 343.009 49.3496C342.32 48.7793 341.441 48.4941 340.372 48.4941C338.542 48.4941 337.08 49.4209 335.987 51.2744C334.894 53.1279 334.3 56.0627 334.205 60.0786L345.647 59.936ZM373.51 83.2119C371.205 83.2119 368.947 82.8674 366.737 82.1782C364.551 81.5129 362.852 80.8 361.64 80.0396L360.571 82.4634H357.79L357.327 69.168H359.929C360.285 70.2373 360.88 71.4492 361.711 72.8037C362.543 74.1344 363.493 75.3345 364.563 76.4038C365.68 77.4731 366.951 78.3761 368.377 79.1128C369.826 79.8494 371.371 80.2178 373.011 80.2178C375.173 80.2178 376.777 79.8019 377.823 78.9702C378.892 78.1147 379.427 76.8078 379.427 75.0493C379.427 74.0988 379.189 73.3146 378.714 72.6968C378.238 72.0789 377.585 71.5443 376.753 71.0928C375.826 70.6175 374.805 70.2135 373.688 69.8809C372.595 69.5482 371.24 69.1442 369.624 68.6689C368.008 68.1937 366.618 67.7184 365.454 67.2432C364.313 66.7441 363.125 65.9718 361.889 64.9263C360.82 63.9995 359.965 62.8826 359.323 61.5757C358.681 60.2687 358.361 58.7122 358.361 56.9062C358.361 53.5557 359.763 50.8467 362.567 48.7793C365.394 46.7119 369.09 45.6782 373.652 45.6782C375.815 45.6782 377.799 45.904 379.605 46.3555C381.435 46.7832 382.967 47.2585 384.203 47.7812L384.951 45.6782H387.66L388.231 57.833H385.7C384.868 55.3617 383.442 53.2349 381.423 51.4526C379.403 49.6466 377.228 48.7437 374.9 48.7437C373.07 48.7437 371.632 49.1239 370.587 49.8843C369.541 50.6447 369.018 51.7021 369.018 53.0566C369.018 54.8626 369.779 56.1696 371.3 56.9775C372.844 57.7855 374.995 58.5459 377.751 59.2588C382.005 60.3519 385.118 61.849 387.09 63.75C389.062 65.6273 390.049 68.0273 390.049 70.9502C390.049 74.8473 388.516 77.8652 385.45 80.0039C382.409 82.1426 378.428 83.2119 373.51 83.2119Z" fill="black"/>
</svg>
