<svg width="332" height="337" viewBox="0 0 332 337" fill="none" xmlns="http://www.w3.org/2000/svg">
<path d="M166 197.684C182.365 197.684 195.632 184.418 195.632 168.053C195.632 151.687 182.365 138.421 166 138.421C149.635 138.421 136.368 151.687 136.368 168.053C136.368 184.418 149.635 197.684 166 197.684Z" fill="black"/>
<path d="M166 228.761C253.813 228.761 325 201.581 325 168.052C325 134.523 253.813 107.343 166 107.343C78.1867 107.343 7 134.523 7 168.052C7 201.581 78.1867 228.761 166 228.761Z" stroke="black" stroke-width="14"/>
<path d="M113.424 198.407C157.331 274.456 216.463 322.515 245.5 305.751C274.537 288.986 262.482 213.747 218.576 137.698C174.669 61.6495 115.537 13.5902 86.5 30.3545C57.4633 47.1189 69.5177 122.359 113.424 198.407Z" stroke="black" stroke-width="14"/>
<path d="M113.424 137.698C69.5178 213.747 57.4634 288.986 86.5001 305.751C115.537 322.515 174.669 274.456 218.576 198.407C262.482 122.359 274.537 47.119 245.5 30.3547C216.463 13.5903 157.331 61.6496 113.424 137.698Z" stroke="black" stroke-width="14"/>
</svg>
