<svg width="301" height="300" viewBox="0 0 301 300" fill="none" xmlns="http://www.w3.org/2000/svg">
<rect width="300" height="300" fill="#FACC15"/>
<path d="M296.386 82.5479C293.863 82.792 291.34 83.3617 288.817 84.2568C286.295 85.0706 283.812 86.1286 281.371 87.4307C277.628 89.5465 274.942 91.8659 273.314 94.3887C271.768 96.9115 270.344 99.9632 269.042 103.544C264.566 115.914 257.649 135.73 248.29 162.992C239.013 190.255 229.328 218.575 219.237 247.953H194.701L148.925 119.169L107.665 247.953H83.1289C69.5384 208.402 59.1217 177.966 51.8789 156.645C44.6361 135.242 38.5326 117.297 33.5684 102.812C32.0221 98.417 30.2725 95.2432 28.3193 93.29C26.3662 91.2555 23.8434 89.221 20.751 87.1865C18.5537 85.7217 16.1937 84.6637 13.6709 84.0127C11.2295 83.2803 8.38118 82.7106 5.12598 82.3037V72.7822H97.5332V82.0596C92.0807 82.7106 88.0117 83.3617 85.3262 84.0127C82.6406 84.5824 80.5247 85.1927 78.9785 85.8438C77.5137 86.4948 76.6185 87.1865 76.293 87.9189C75.9674 88.6514 75.8047 89.3024 75.8047 89.8721C75.8047 91.0114 75.9268 92.11 76.1709 93.168C76.4964 94.2259 76.8219 95.4466 77.1475 96.8301C79.1006 103.178 83.0475 115.222 88.9883 132.963C94.929 150.704 102.253 172.717 110.961 199.003L150.39 72.7822H176.269L222.045 202.909C228.799 181.994 234.171 164.905 238.158 151.64C242.227 138.375 245.645 127.022 248.412 117.582C250.04 111.804 251.342 106.962 252.318 103.056C253.295 99.1494 253.783 95.7721 253.783 92.9238C253.783 91.2148 252.969 89.75 251.342 88.5293C249.796 87.3086 247.68 86.2507 244.994 85.3555C242.715 84.623 239.745 84.0534 236.083 83.6465C232.502 83.1582 229.369 82.792 226.684 82.5479V72.7822H296.386V82.5479Z" fill="black"/>
</svg>
